<svg xmlns="http://www.w3.org/2000/svg" width="32" height="32" viewBox="0 0 32 32">
  <!-- Base del candado -->
  <rect x="6" y="14" width="20" height="14" rx="2" fill="#0066cc"/>
  
  <!-- Arco del candado -->
  <path d="M9 14v-4c0-3.866 3.134-7 7-7s7 3.134 7 7v4" 
        fill="none" 
        stroke="#0066cc" 
        stroke-width="3" 
        stroke-linecap="round"/>
  
  <!-- Detalles del candado -->
  <circle cx="16" cy="21" r="2" fill="white"/>
  <rect x="15" y="21" width="2" height="4" fill="white"/>
  
  <!-- Patrón de hash/seguridad -->
  <g fill="white" opacity="0.2">
    <rect x="10" y="16" width="1" height="1"/>
    <rect x="13" y="16" width="1" height="1"/>
    <rect x="16" y="16" width="1" height="1"/>
    <rect x="19" y="16" width="1" height="1"/>
    <rect x="10" y="19" width="1" height="1"/>
    <rect x="13" y="19" width="1" height="1"/>
    <rect x="19" y="19" width="1" height="1"/>
    <rect x="10" y="22" width="1" height="1"/>
    <rect x="13" y="22" width="1" height="1"/>
    <rect x="16" y="22" width="1" height="1"/>
    <rect x="19" y="22" width="1" height="1"/>
  </g>
</svg>