<svg xmlns="http://www.w3.org/2000/svg" viewBox="0 0 64 64" width="32" height="32">
  <!-- File background -->
  <path d="M44 0H8C6.9 0 6 .9 6 2v60c0 1.1.9 2 2 2h48c1.1 0 2-.9 2-2V14L44 0z" fill="#f2f2f2"/>
  
  <!-- File fold -->
  <path d="M44 0v14h14L44 0z" fill="#dddddd"/>
  
  <!-- Hash/grid security pattern -->
  <g fill="#0066cc" opacity="0.2">
    <rect x="12" y="24" width="4" height="4"/>
    <rect x="20" y="24" width="4" height="4"/>
    <rect x="28" y="24" width="4" height="4"/>
    <rect x="36" y="24" width="4" height="4"/>
    <rect x="44" y="24" width="4" height="4"/>
    
    <rect x="12" y="32" width="4" height="4"/>
    <rect x="20" y="32" width="4" height="4"/>
    <rect x="28" y="32" width="4" height="4"/>
    <rect x="36" y="32" width="4" height="4"/>
    <rect x="44" y="32" width="4" height="4"/>
  </g>

  <!-- Shield overlay -->
  <path d="M32 20c-8.8 0-16 2.7-16 6v8c0 9.3 7.2 16 16 16s16-6.7 16-16v-8c0-3.3-7.2-6-16-6z" fill="#0066cc"/>
  <path d="M32 44c-6.6 0-12-4-12-10v-6c0-1.5 5.4-3 12-3s12 1.5 12 3v6c0 6-5.4 10-12 10z" fill="#ffffff"/>
  
  <!-- Magnifying glass -->
  <circle cx="32" cy="31" r="4" fill="none" stroke="#0066cc" stroke-width="2"/>
  <line x1="35" y1="34" x2="38" y2="37" stroke="#0066cc" stroke-width="2" stroke-linecap="round"/>
</svg>
